<svg id="Layer_1" data-name="Layer 1" xmlns="http://www.w3.org/2000/svg" viewBox="0 0 50 50"><title>icon-facebook.inline</title><path d="M35.1,0H14.9A14.91,14.91,0,0,0,0,14.9V35.1A14.91,14.91,0,0,0,14.9,50H35.1A14.91,14.91,0,0,0,50,35.1V14.9A14.91,14.91,0,0,0,35.1,0ZM45,35.1A9.87,9.87,0,0,1,35.1,45H31.88l0-13.47h5.62a1,1,0,0,0,1-.88l.13-1.09V24.48a.92.92,0,0,0-.5-.23H31.88V19.86c0-2,.55-3.35,3.41-3.35h2.64a1,1,0,0,0,.72-.33V10.42a1,1,0,0,0-.72-.33H33.62c-5.25,0-8.85,3.2-8.85,9.09v5.07H20.55a1,1,0,0,0-1,1l0,5.25a1,1,0,0,0,1,1H24.8l0,13.47H14.9A9.87,9.87,0,0,1,5,35.1V14.9A9.87,9.87,0,0,1,14.9,5H35.1A9.87,9.87,0,0,1,45,14.9Z" style="fill:#3c5a9a"/></svg>