<svg id="Layer_1" data-name="Layer 1" xmlns="http://www.w3.org/2000/svg" xmlns:xlink="http://www.w3.org/1999/xlink" viewBox="0 0 50 50"><defs><linearGradient id="linear-gradient" x1="25" y1="-144.15" x2="25" y2="-193.61" gradientTransform="translate(0 194)" gradientUnits="userSpaceOnUse"><stop offset="0" stop-color="#e19c3d"/><stop offset="0.3" stop-color="#c84d4e"/><stop offset="0.6" stop-color="#c22276"/><stop offset="1" stop-color="#6a4899"/></linearGradient><linearGradient id="linear-gradient-3" x1="37.96" y1="-144.15" x2="37.96" y2="-193.61" xlink:href="#linear-gradient"/></defs><title>icon-instagram.inline</title><path d="M35.1,0H14.9A14.91,14.91,0,0,0,0,14.9V35.1A14.91,14.91,0,0,0,14.9,50H35.1A14.91,14.91,0,0,0,50,35.1V14.9A14.91,14.91,0,0,0,35.1,0ZM45,35.1A9.87,9.87,0,0,1,35.1,45H14.9A9.87,9.87,0,0,1,5,35.1V14.9A9.87,9.87,0,0,1,14.9,5H35.1A9.87,9.87,0,0,1,45,14.9V35.1Z" style="fill:url(#linear-gradient)"/><path d="M25,12.07A12.93,12.93,0,1,0,37.93,25,12.94,12.94,0,0,0,25,12.07ZM25,32.9A7.9,7.9,0,1,1,32.9,25,7.9,7.9,0,0,1,25,32.9Z" style="fill:url(#linear-gradient)"/><circle cx="37.96" cy="12.17" r="3.1" style="fill:url(#linear-gradient-3)"/></svg>