<?xml version="1.0" encoding="utf-8"?>
<!-- Generator: Adobe Illustrator 23.0.2, SVG Export Plug-In . SVG Version: 6.00 Build 0)  -->
<svg version="1.1" id="Layer_1" xmlns="http://www.w3.org/2000/svg" xmlns:xlink="http://www.w3.org/1999/xlink" x="0px" y="0px"
	 viewBox="0 0 86.53 55.63" style="enable-background:new 0 0 86.53 55.63;" xml:space="preserve">
<style type="text/css">
	.st0{fill:none;}
	.st1{fill:#5D4E7C;}
	.st2{fill:#FDFEFE;}
	.st3{fill:#C6C5DC;}
	.st4{fill:#008080;}
</style>
<title>logo</title>
<path class="st0" d="M44,19.75"/>
<path class="st1" d="M60.67,16.19c-0.14,0.84-0.34,1.66-0.61,2.47c0.01,0.85-0.05,1.7-0.18,2.54c-0.39,0.75-0.84,1.47-1.35,2.15
	c-0.27,0.81-0.61,1.6-1,2.36c-0.49,0.68-1.36,1-1.95,1.63s-1,1.46-1.63,1.95c-0.76,0.39-1.55,0.72-2.36,1
	c-0.68,0.5-1.41,0.95-2.16,1.34c-0.84,0.13-1.68,0.19-2.53,0.18c-0.81,0.27-1.63,0.47-2.47,0.61c-0.83-0.15-1.64-0.37-2.43-0.65
	c-0.85,0.01-1.7-0.05-2.54-0.18c-0.75-0.39-1.47-0.84-2.15-1.34c-0.81-0.28-1.6-0.61-2.36-1c-0.68-0.49-1-1.36-1.63-1.95
	s-1.46-0.95-1.95-1.63c-0.39-0.76-0.72-1.55-1-2.36c-0.5-0.68-0.95-1.4-1.34-2.15c-0.13-0.84-0.19-1.69-0.18-2.54
	c-0.27-0.81-0.47-1.63-0.61-2.47c0.14-0.84,0.34-1.66,0.61-2.47c-0.01-0.85,0.05-1.69,0.18-2.53C29.44,10.4,29.9,9.68,30.42,9
	c0.28-0.81,0.61-1.6,1-2.36c0.49-0.67,1.36-1,1.95-1.63s1-1.46,1.63-1.95c0.76-0.38,1.55-0.69,2.36-0.95
	c0.67-0.49,1.37-0.94,2.11-1.32C40.31,0.66,41.15,0.6,42,0.61c0.81-0.27,1.64-0.47,2.48-0.61c0.85,0.14,1.7,0.34,2.52,0.61
	c0.85-0.01,1.69,0.05,2.53,0.18c0.76,0.39,1.48,0.84,2.16,1.35C52.48,2.4,53.25,2.72,54,3.09c0.67,0.49,1,1.36,1.63,2
	s1.46,1,1.95,1.63c0.39,0.76,0.73,1.55,1,2.36c0.51,0.68,0.96,1.4,1.35,2.16c0.13,0.84,0.19,1.68,0.18,2.53
	C60.36,14.56,60.55,15.37,60.67,16.19z"/>
<circle class="st2" cx="44.48" cy="16.19" r="14.49"/>
<path class="st3" d="M54.46,23.27l-2.53-11l-1.85-2.49L48.24,8l-3.51-0.47l-3.65,0.88l-1.6,1.49l-1.89,2.09l-3.72,0.8l-0.46,2.44
	c0,0.18,0,0.35,0,0.53s-0.42,0.54-0.42,0.73l1,0.92l1.89,1.48l3.11,0.79l1.81,0.54l1.08,0.87l1.39,7.63
	c0.59,0.1,1.18,0.16,1.78,0.16c1.44-0.02,2.86-0.32,4.18-0.88l0.18-0.08l0.2-0.1c0.39-0.19,0.77-0.41,1.12-0.66
	C53.9,24.91,54.46,23.27,54.46,23.27z"/>
<path class="st1" d="M54.38,24c0.27-0.41,0.5-0.84,0.71-1.28c0.02-0.06,0.02-0.12,0-0.18l-2.88-9.73C51.9,11.8,51.5,10.82,51,9.89
	c-0.69-1.33-1.97-2.25-3.45-2.48c-0.91-0.14-1.84-0.19-2.76-0.15C43.56,7.3,42.34,7.55,41.2,8c-0.88,0.32-1.61,0.97-2.05,1.8
	c-0.17,0.32-0.37,0.62-0.55,0.93c-0.29,0.5-0.75,0.88-1.3,1.06c-0.28,0.11-0.57,0.17-0.86,0.2c-0.87,0.09-1.75,0.14-2.63,0.21
	c-0.47,0.01-0.94,0.07-1.39,0.2c-0.37,0.11-0.71,0.29-1,0.54c-0.23,0.19-0.34,0.49-0.26,0.78c0.11,0.57,0.33,1.12,0.66,1.6
	c0.18,0.22,0.37,0.43,0.58,0.62c0.07,0.06,0.13,0.15,0.15,0.24c0.09,0.38,0.21,0.76,0.36,1.12c0.22,0.58,0.76,0.97,1.37,1
	c0.09,0,0.12,0.05,0.15,0.13c0.17,0.44,0.46,0.81,0.84,1.09c0.49,0.35,1.04,0.6,1.63,0.72c0.79,0.19,1.59,0.33,2.39,0.5
	c0.72,0.1,1.35,0.52,1.71,1.15c0.14,0.26,0.24,0.53,0.32,0.81c0.14,0.67,0.9,4.71,1.08,5.64c0.38,0.08,0.76,0.14,1.14,0.18
	c-0.21-1.36-0.93-5.4-1.16-6.26l0.11,0.09c1.68,1.44,3.97,1.93,6.09,1.32c1.61-0.37,2.84-1.68,3.11-3.32
	c0.13-0.78,0.11-1.58-0.07-2.35c-0.13-0.72-0.32-1.43-0.43-2.16c-0.21-1.28-0.39-2.57-0.58-3.86l-0.06-0.38h0.05
	C52,15.36,53.25,20.11,54.38,24z M40.69,17.19c-0.37,0.91-0.34,1.92,0.07,2.81l0.07,0.18l0,0c-0.68-0.35-1.41-0.57-2.17-0.65
	c-0.75-0.1-1.48-0.29-2.18-0.57c-0.24-0.11-0.46-0.26-0.7-0.39v-0.06H36c0.8,0.08,1.6-0.5,2.41-0.42c0.3,0.08,0.6-0.1,0.68-0.4
	c0.08-0.3-0.1-0.6-0.4-0.68c-0.03-0.01-0.06-0.01-0.09-0.02c-1.15-0.16-2.32,0.38-3.49,0.38c-0.21,0.01-0.42,0.01-0.63,0
	c-0.22-0.02-0.41-0.15-0.5-0.35c-0.11-0.27-0.19-0.56-0.28-0.84c0,0,0-0.08,0.05-0.1c0.33-0.25,0.57-0.6,0.67-1
	c0.15-0.41,0.24-0.85,0.24-1.29c-0.03-0.2,0.06-0.39,0.23-0.49c0.09-0.04,0.19-0.06,0.29-0.06l1.46-0.12c0.85-0.08,1.65-0.43,2.29-1
	c0.4-0.38,0.74-0.82,1-1.31c0.12-0.21,0.25-0.41,0.36-0.62c0.27-0.5,0.71-0.88,1.24-1.08c0.95-0.4,1.97-0.63,3-0.68
	c0.85-0.07,1.7-0.07,2.55,0h0.23l0,0c-0.75,0.25-1.4,0.73-1.86,1.37c-0.57,0.73-1.06,1.51-1.49,2.33c-0.15,0.27-0.3,0.54-0.44,0.81
	c-0.46,0.86-1.01,1.66-1.64,2.41C41.39,15.9,40.99,16.52,40.69,17.19z M50.62,19.84c-0.1,1.33-1.04,2.44-2.33,2.76
	c-0.21,0.06-0.42,0.11-0.64,0.14c-0.29,0-0.59,0.05-0.79,0.07c-1.34,0.01-2.64-0.46-3.66-1.32c-0.74-0.64-1.27-1.49-1.5-2.44
	c-0.14-0.66-0.04-1.35,0.3-1.94c0.21-0.39,0.44-0.75,0.71-1.1c0.81-1.01,1.52-2.11,2.1-3.27c0.36-0.74,0.8-1.45,1.31-2.1
	c0.22-0.28,0.48-0.54,0.76-0.76c0.51-0.45,1.29-0.39,1.74,0.12c0.01,0.01,0.02,0.03,0.03,0.04c0.3,0.34,0.52,0.74,0.65,1.17
	c0.23,0.7,0.38,1.43,0.45,2.17c0.15,1.53,0.39,3.06,0.73,4.56C50.64,18.56,50.68,19.2,50.62,19.84z"/>
<path class="st1" d="M40.92,13.15L40.29,13c-0.06-0.01-0.12-0.04-0.17-0.08c-0.08-0.05-0.08-0.11,0-0.16l0.14-0.06
	c0.13-0.06,0.21-0.19,0.21-0.33c0-0.14,0-0.27,0-0.4s0.17-0.41,0.44-0.39c0.48,0.04,0.92,0.3,1.19,0.7
	c0.13,0.18,0.09,0.43-0.08,0.56c-0.02,0.01-0.03,0.02-0.05,0.03C41.66,13.07,41.29,13.16,40.92,13.15z"/>
<path class="st1" d="M37.33,25.22c-0.4-0.05-0.7-0.4-0.69-0.81v-0.68c0-0.21,0.09-0.41,0.25-0.55c0.15-0.15,0.35-0.22,0.56-0.22
	h0.11c0.21,0.01,0.41,0.1,0.55,0.25c0.14,0.15,0.22,0.36,0.22,0.57v0.68c-0.02,0.43-0.38,0.78-0.81,0.77h-0.19L37.33,25.22z
	 M37.61,23.34h-0.15c-0.11,0-0.22,0.04-0.3,0.11c-0.08,0.08-0.13,0.19-0.13,0.3v0.68c-0.02,0.23,0.15,0.42,0.38,0.44
	c0.01,0,0.02,0,0.03,0h0.11c0.23,0.01,0.42-0.18,0.43-0.41c0,0,0,0,0,0v-0.68c0-0.11-0.04-0.23-0.12-0.31
	C37.8,23.4,37.71,23.35,37.61,23.34z"/>
<path class="st1" d="M56.6,11.64C54.09,4.98,46.66,1.61,40,4.11c-3.29,1.24-5.94,3.77-7.32,7.01c-0.03,0.06-0.03,0.14,0,0.2
	c0.03,0.07,0.08,0.12,0.14,0.15c0.06,0.03,0.14,0.03,0.2,0c0.07-0.03,0.12-0.08,0.15-0.14c2.68-6.22,9.89-9.09,16.11-6.41
	C49.34,4.95,49.4,4.97,49.46,5c6.14,2.75,8.88,9.96,6.13,16.1c-1.36,3.02-3.88,5.37-7,6.48c-3.05,1.09-6.41,0.9-9.33-0.51
	c-1.44-0.7-2.73-1.68-3.79-2.87c-1-1.04-1.71-2.32-2.08-3.72c-0.21-1.08,0.26-2.2,1.56-2s1.65,2,1.81,3
	c0.09,0.5,0.14,1.01,0.15,1.52c0,0.47,0.4,1.18,1,0.65c0.36-0.35,0.15-0.77,0.11-1.21c-0.03-0.63-0.14-1.26-0.33-1.86
	c-0.25-0.74-0.73-1.38-1.36-1.84C35.3,18.02,33.91,18.13,33,19c-1.49,1.77,0.55,4.56,1.76,5.89c2.47,2.77,6.01,4.35,9.72,4.34
	c7.18-0.02,12.98-5.86,12.96-13.04C57.43,14.63,57.15,13.09,56.6,11.64z"/>
<path class="st1" d="M12.71,36.18c-0.33,2-0.83,4.16-2.7,5.45c-1.7,1.18-3.16,0.33-3.93,1.3c-0.25,0.34-0.4,0.73-0.45,1.15
	c-0.23,1.31,1,1.16,1.12,1.54c0.03,0.09,0.06,0.18,0.08,0.27c-0.08,0.39-0.58,0.51-0.89,0.51H0.7C0.41,46.4,0,46.32,0,46
	c0-0.83,1.79,0,2.17-1.79C3,40.52,3.63,36.8,4.29,33.08c0.44-2.53-0.81-1.31-1.43-2.6c-0.03-0.08-0.03-0.16,0-0.24
	C2.87,30.14,2.92,30.06,3,30c0.55-0.46,1.33-0.28,2-0.28C9.58,29.73,13.84,29.82,12.71,36.18z M9.57,33.12
	c0.13-0.68,0.32-1.95-0.56-2.35s-1.37,1.09-1.51,1.86c-0.44,2.55-0.9,5.11-1.35,7.66C6.04,40.92,6.27,41.67,7,41.67
	c0.54,0.03,1.04-0.31,1.2-0.83C8.84,38.3,9.29,35.72,9.57,33.12z"/>
<path class="st1" d="M19.65,45.84c0.18,0.57-0.95,0.51-1.34,0.5c-0.58,0-1.65,0.16-1.52-0.55s0.5-2.42-0.48-2.42
	c-0.25,0-0.4,0.19-0.5,0.44c-0.08,0.24-0.14,0.5-0.17,0.75c-0.06,0.28-0.23,1,0,1.07s0.56,0.17,0.5,0.44s-0.43,0.3-0.62,0.3H12.5
	c-0.18,0-0.58-0.06-0.54-0.31c0.09-0.47,1.16-0.22,1.35-1.09s0.39-2,0.58-3c0.32-1.85,0.58-3.59,0.91-5.44
	c0.16-1-0.59-0.43-0.87-1.07c-0.02-0.05-0.02-0.11,0-0.16c0.01-0.06,0.03-0.11,0.07-0.16c0.3-0.38,2.29-0.26,2.81-0.26
	c2.68,0,4.12,0.54,3.6,3.57c-0.12,1.22-0.46,2.4-1,3.5c-0.23,0.39-1.13,1-1.16,1.22c-0.09,0.54,0.53,0,1.14,1.9
	C19.46,45.29,19.56,45.57,19.65,45.84z M16.18,41c-0.12,1-0.08,1.66,0.31,1.63c0.49,0.01,0.92-0.34,1-0.83
	c0.15-0.85,1.71-6.45,0.42-6.45c-0.36,0.04-0.65,0.31-0.71,0.66C17.1,36.64,16.38,39.27,16.18,41z"/>
<path class="st1" d="M29.38,37.78l-0.22,1.34l-0.71,3.93c-0.29,2-2.06,3.44-4.08,3.32c-2.61,0-3.13-1.88-2.73-4.21l0.68-3.79
	c0.27-2.13,2.1-3.73,4.25-3.7c1.48-0.08,2.75,1.06,2.83,2.54C29.41,37.4,29.4,37.6,29.38,37.78L29.38,37.78z M25.77,44.07
	c0.08-0.4,0.09-0.76,1-6c0.15-0.82,0.88-2.87-0.36-2.87c-0.76,0-1.08,0.59-1.19,1.24l-1.43,8.16c-0.1,0.55,0,1.17,0.66,1.17
	C25.46,45.77,25.65,44.82,25.77,44.07z"/>
<path class="st1" d="M37.67,39.25c-0.08,1.47-0.76,2.85-1.88,3.81c-1.19,0.83-2.22,0.23-2.76,0.91c-0.17,0.24-0.28,0.52-0.31,0.81
	c-0.16,0.91,0.73,0.81,0.79,1.08c0.02,0.06,0.04,0.12,0.05,0.18c-0.05,0.27-0.41,0.36-0.62,0.36h-3.67c-0.2,0-0.49-0.06-0.47-0.27
	c0-0.58,1.25,0,1.52-1.26c0.57-2.59,1-5.19,1.46-7.8c0.31-1.76-0.57-0.91-1-1.82c-0.02-0.05-0.02-0.11,0-0.16
	c0.01-0.07,0.04-0.12,0.1-0.16c0.39-0.32,0.93-0.2,1.37-0.2C35.49,34.73,38.47,34.79,37.67,39.25z M35.47,37.1
	c0.1-0.47,0.23-1.36-0.39-1.64s-0.95,0.76-1,1.3c-0.31,1.78-0.63,3.58-0.94,5.36c-0.08,0.44,0.08,1,0.59,1
	c0.38,0.02,0.73-0.22,0.84-0.58C35,40.75,35.3,38.93,35.47,37.1z"/>
<path class="st1" d="M44.05,45c-0.28,1.62-2.84,1.4-6.24,1.38c-0.19,0-0.56,0-0.51-0.3c0.06-0.41,1.05-0.22,1.18-1
	c0.46-2.64,1-5.18,1.42-7.82c0.07-0.35,0.27-1.35,0.05-1.61s-0.81-0.32-0.77-0.52s0.48-0.38,0.73-0.38H43c1,0,2.89,0.2,2.65,1.61
	c-0.15,0.56-0.65,0.96-1.23,1c-1.67,0,0.15-2.29-1.43-2.29c-0.81,0-1.1,2.91-1.21,3.56c-0.06,0.27-0.34,1.66,0.13,1.66s1-1,1.41-1
	c0.2,0.01,0.35,0.18,0.34,0.38c0,0.02,0,0.04-0.01,0.06c-0.21,1.2-2.22,0.69-2.45,2c-0.15,0.85-0.33,1.67-0.47,2.49
	c-0.1,0.53-0.27,1.69,0.48,1.69c0.31,0,0.9-0.22,1-0.58c0.12-0.66,0.2-1.5,1.11-1.5C44,43.91,44.16,44.39,44.05,45z"/>
<path class="st1" d="M52.52,45.84c0.19,0.57-0.94,0.51-1.33,0.5c-0.59,0-1.65,0.16-1.53-0.55s0.5-2.42-0.47-2.42
	c-0.26,0-0.41,0.19-0.5,0.44c-0.08,0.24-0.14,0.5-0.18,0.75c0,0.28-0.23,1,0.06,1.07s0.55,0.17,0.5,0.44s-0.43,0.3-0.62,0.3h-3.08
	c-0.17,0-0.58-0.06-0.54-0.31c0.1-0.47,1.16-0.22,1.35-1.09s0.39-2,0.58-3c0.32-1.85,0.58-3.59,0.92-5.44c0.16-1-0.6-0.43-0.88-1.07
	c-0.03-0.05-0.03-0.11,0-0.16c0-0.06,0.02-0.11,0.06-0.16c0.3-0.38,2.3-0.26,2.81-0.26c2.68,0,4.13,0.54,3.6,3.57
	c-0.12,1.22-0.46,2.4-1,3.5c-0.23,0.39-1.14,1-1.16,1.22c-0.1,0.54,0.52,0,1.13,1.9C52.33,45.29,52.44,45.57,52.52,45.84z M49.05,41
	c-0.12,1-0.08,1.66,0.31,1.63c0.49,0.01,0.92-0.34,1-0.83c0.15-0.85,1.71-6.45,0.42-6.45c-0.36,0.04-0.64,0.31-0.7,0.66
	C50,36.64,49.26,39.27,49.05,41z"/>
<path class="st1" d="M68.66,36.18c-0.33,2-0.83,4.16-2.7,5.45c-1.7,1.18-3.16,0.33-3.93,1.3c-0.25,0.34-0.41,0.73-0.45,1.15
	c-0.23,1.31,1,1.16,1.12,1.54c0.03,0.09,0.06,0.18,0.08,0.27c-0.08,0.39-0.58,0.51-0.89,0.51h-5.24c-0.29,0-0.69-0.08-0.67-0.39
	c0-0.83,1.79,0,2.17-1.79c0.81-3.7,1.43-7.42,2.08-11.14c0.45-2.53-0.8-1.31-1.42-2.6c-0.03-0.08-0.03-0.16,0-0.24
	c0-0.09,0.03-0.17,0.09-0.24c0.56-0.46,1.33-0.28,2-0.28C65.53,29.73,69.79,29.82,68.66,36.18z M65.52,33.12
	c0.13-0.68,0.32-1.95-0.56-2.35s-1.37,1.09-1.51,1.86c-0.44,2.55-0.9,5.11-1.35,7.66c-0.11,0.63,0.12,1.38,0.85,1.38
	c0.54,0.03,1.04-0.31,1.2-0.83C64.79,38.3,65.24,35.72,65.52,33.12z"/>
<path class="st1" d="M78.16,35.32c-0.23,0.23-0.51,0.26-0.73,0.5c-0.38,1.28-0.68,2.58-0.88,3.9l-0.64,3.59
	c-0.2,1.89-1.88,3.26-3.77,3.1c-2.25,0-2.88-1.81-2.52-3.83l1.13-6.5c0.15-0.85-0.78-0.39-0.67-1c0,0,0.08-0.17,0.09-0.21
	c0.24-0.1,0.49-0.15,0.75-0.13H73c1.62,0,3.23,0,4.84,0c0.18,0,0.48,0,0.44,0.27C78.23,35.11,78.19,35.21,78.16,35.32z M73.26,45
	c0.49-2,0.81-4.06,1.18-6.05c0.08-0.46,0.55-3.07,0.31-3.35c-0.16-0.19-0.41-0.29-0.66-0.27c-0.24,0-0.47,0.09-0.65,0.24
	c-0.19,0.18-0.31,0.43-0.33,0.69L72,42.69L71.55,45c-0.05,0.39,0.23,0.76,0.62,0.81c0.05,0.01,0.1,0.01,0.15,0
	C72.78,45.79,73.17,45.46,73.26,45z"/>
<path class="st1" d="M86.4,39.25c-0.07,1.48-0.75,2.85-1.88,3.81c-1.19,0.83-2.22,0.23-2.76,0.91c-0.17,0.24-0.28,0.52-0.31,0.81
	c-0.16,0.91,0.73,0.81,0.79,1.08c0.02,0.06,0.04,0.12,0.05,0.18c-0.05,0.27-0.4,0.36-0.62,0.36H78c-0.2,0-0.48-0.06-0.47-0.27
	c0-0.58,1.25,0,1.52-1.26c0.57-2.59,1-5.19,1.46-7.8c0.31-1.76-0.57-0.91-1-1.82c-0.02-0.05-0.02-0.11,0-0.16
	c0.01-0.07,0.04-0.12,0.1-0.16c0.39-0.32,0.93-0.2,1.37-0.2C84.22,34.73,87.2,34.79,86.4,39.25z M84.21,37.1
	c0.09-0.47,0.23-1.36-0.4-1.64s-1,0.76-1,1.3c-0.31,1.78-0.63,3.58-0.94,5.36c-0.08,0.44,0.08,1,0.59,1
	c0.38,0.02,0.73-0.22,0.84-0.58C83.73,40.75,84.04,38.93,84.21,37.1z"/>
<path class="st4" d="M28.56,49.76h1.13l0.35,5.8h-1.11l-0.05-1.2h-1.49l-0.56,1.2H25.7L28.56,49.76z M28.84,53.37l-0.08-2l-0.92,2
	H28.84z"/>
<path class="st4" d="M31.47,53.36c-0.01-1.1,0.37-2.16,1.07-3c0.37-0.38,0.87-0.61,1.4-0.62c0.61-0.03,1.2,0.27,1.53,0.79
	l-0.76,0.78c-0.23-0.35-0.46-0.53-0.75-0.53c-0.23,0.01-0.44,0.11-0.59,0.28c-0.5,0.66-0.78,1.47-0.77,2.3
	c0,0.88,0.34,1.24,0.75,1.24c0.32-0.03,0.62-0.17,0.84-0.41l0.46,0.93c-0.38,0.34-0.86,0.52-1.37,0.53
	C32.16,55.63,31.47,54.87,31.47,53.36z"/>
<path class="st4" d="M38.3,49.76h1.13l0.35,5.8h-1.11l-0.05-1.2h-1.49l-0.56,1.2h-1.13L38.3,49.76z M38.58,53.37l-0.08-2l-0.92,2
	H38.58z"/>
<path class="st4" d="M42.16,49.78h1.09c0.6-0.05,1.19,0.15,1.63,0.55c0.39,0.43,0.58,1,0.53,1.57c0.04,1.05-0.32,2.08-1,2.88
	c-0.56,0.54-1.31,0.82-2.08,0.78H40.9L42.16,49.78z M43.3,50.78H43l-0.81,3.76h0.28c0.4,0.01,0.79-0.16,1.07-0.45
	c0.47-0.59,0.74-1.33,0.75-2.09c0.05-0.36-0.06-0.72-0.29-1c-0.19-0.16-0.45-0.24-0.7-0.21V50.78z"/>
<path class="st4" d="M47.39,49.78h3l-0.23,1h-1.89L48,52.14h1.65l-0.21,1h-1.68l-0.29,1.38h1.93l-0.24,1h-3L47.39,49.78z"/>
<path class="st4" d="M51.87,49.78H53l0.51,2.27L55,49.78h1.18l-1.28,5.78h-1.08l0.79-3.6L53,54.26l0,0L52.47,52l-0.78,3.59h-1.08
	L51.87,49.78z"/>
<path class="st4" d="M57.94,53.28l-0.71-3.5h1.17L58.74,52l1.33-2.25h1.23L59,53.32l-0.48,2.24h-1.07L57.94,53.28z"/>
<path class="st1" d="M0,50l26.61-0.23c0.12,0,0.22,0.1,0.23,0.22c0,0.13-0.1,0.23-0.23,0.24l0,0L0,50z"/>
<path class="st1" d="M21.71,52.6l0.94-0.18l0.94-0.14c0.3-0.08,0.62-0.11,0.93-0.09c0.34,0.05,0.67,0.19,0.94,0.41
	c0.02,0.03,0.02,0.06,0,0.09l0,0c-0.27,0.22-0.6,0.36-0.94,0.41c-0.31,0.02-0.63-0.01-0.93-0.09l-0.94-0.14l-0.94-0.18
	c0,0,0,0,0-0.06S21.7,52.61,21.71,52.6z"/>
<path class="st1" d="M64.35,52.7l-0.94,0.18l-0.94,0.14c-0.3,0.08-0.62,0.11-0.93,0.09c-0.34-0.05-0.67-0.19-0.94-0.41
	c-0.02-0.03-0.02-0.06,0-0.09l0,0c0.27-0.22,0.6-0.36,0.94-0.41c0.31-0.02,0.63,0.01,0.93,0.09l0.94,0.14l0.94,0.18 M64.35,52.67
	c0,0,0.01,0.02,0,0.03V52.67z"/>
<path class="st1" d="M9.41,55.29l14.67-0.23c0.13,0,0.23,0.1,0.23,0.23c0.01,0.12-0.07,0.22-0.19,0.23c-0.01,0-0.02,0-0.03,0l0,0
	L9.41,55.29z"/>
<path class="st1" d="M82.14,50l-20,0.23C62.05,50.19,61.99,50.1,62,50c-0.01-0.12,0.09-0.22,0.21-0.23c0,0,0.01,0,0.01,0l0,0
	L82.14,50z"/>
<path class="st1" d="M74.57,55.29l-14.91,0.23c-0.12,0-0.22-0.1-0.23-0.22c0-0.13,0.1-0.23,0.23-0.24l0,0L74.57,55.29z"/>
</svg>
