<svg id="Capa_1" data-name="Capa 1" xmlns="http://www.w3.org/2000/svg" viewBox="0 0 43 56"><title>pdf.inline</title><path d="M30.49,0h-29C.66,0,0,.65,0,1.93V55c0,.35.65,1,1.46,1H41.54c.81,0,1.46-.65,1.46-1V13c0-.7-.09-.92-.26-1.09L31.11.26A.87.87,0,0,0,30.49,0Z" style="fill:#e9e9e0"/><polygon points="31 0.15 31 12 42.85 12 31 0.15" style="fill:#d9d7ca"/><path d="M13,33.32h0a1.61,1.61,0,0,1-1-.32,2.42,2.42,0,0,1-1.12-2.24c.18-1.63,2.2-3.34,6-5.07a68.48,68.48,0,0,0,3.79-10.75c-1-2.17-2-5-1.27-6.64a1.93,1.93,0,0,1,1.14-1.22,4.64,4.64,0,0,1,1-.17c.51,0,.95.65,1.27,1s1,1.17-.38,6.8a32,32,0,0,0,5.09,7.56A19.19,19.19,0,0,1,30.93,22c1.56,0,2.51.37,2.9,1.12a2,2,0,0,1-.39,2.16,2.65,2.65,0,0,1-2.22,1.19c-1.22,0-2.63-.77-4.21-2.28A47.75,47.75,0,0,0,18.18,27a28.68,28.68,0,0,1-2.38,4.25C14.77,32.65,13.89,33.32,13,33.32Zm2.67-5.12c-2.14,1.2-3,2.19-3.08,2.74,0,.09,0,.34.44.69C13.18,31.59,14.06,31.19,15.68,28.2Zm13.63-4.44c.82.62,1,.94,1.55.94a1.51,1.51,0,0,0,1.21-.44,1.38,1.38,0,0,0,.23-.42c-.12-.06-.29-.19-1.18-.19A13.82,13.82,0,0,0,29.31,23.76Zm-7.47-6.59a71,71,0,0,1-2.67,7.57,49.73,49.73,0,0,1,6.5-2A34.77,34.77,0,0,1,21.84,17.17Zm-.6-8.46a2.4,2.4,0,0,0,.09,3.22C22.28,9.81,21.28,8.7,21.24,8.71Z" style="fill:#cc4b4c"/><path d="M41.54,56H1.46A1.46,1.46,0,0,1,0,54.54V39H43V54.54A1.46,1.46,0,0,1,41.54,56Z" style="fill:#cc4b4c"/><path d="M14.54,43.74a3.53,3.53,0,0,0-1.13-.61,4,4,0,0,0-1.27-.21H9.24V53h1.64V49.36H12.1a4.2,4.2,0,0,0,1.45-.23,3.05,3.05,0,0,0,1.12-.66,3,3,0,0,0,.73-1A3.66,3.66,0,0,0,15.66,46a2.84,2.84,0,0,0-.31-1.31A3.52,3.52,0,0,0,14.54,43.74Zm-.62,3.33a1.54,1.54,0,0,1-.4.65,1.41,1.41,0,0,1-.54.34,1.7,1.7,0,0,1-.59.1h-1.5v-4h1.22a2.15,2.15,0,0,1,1,.2,1.6,1.6,0,0,1,.59.49,1.53,1.53,0,0,1,.28.61,2.59,2.59,0,0,1,.07.57A3.07,3.07,0,0,1,13.92,47.07ZM24.45,44.4a4.37,4.37,0,0,0-1.6-1.07,5.69,5.69,0,0,0-2.23-.41h-3V53H21.4c.13,0,.32,0,.59,0a3.7,3.7,0,0,0,.87-.22,4.25,4.25,0,0,0,1-.51,3.62,3.62,0,0,0,.93-.94,5.28,5.28,0,0,0,.67-1.47,7.36,7.36,0,0,0,.27-2.13,5.07,5.07,0,0,0-.32-1.76A4.33,4.33,0,0,0,24.45,44.4Zm-1.19,6.33a2.73,2.73,0,0,1-2.41,1.07H19.22V44.17h1a5,5,0,0,1,1.92.31,3.08,3.08,0,0,1,1.17.8,2.93,2.93,0,0,1,.58,1.12A5.19,5.19,0,0,1,24,47.64,5.42,5.42,0,0,1,23.26,50.73Zm6.51-6.56v3.17H34v1.12H29.77V53H28.1V42.92h6.3v1.25Z" style="fill:#fff"/></svg>